<svg class="svg-icon svg-icon-edit" xmlns="http://www.w3.org/2000/svg" viewBox="0 0 20 20" width="20" height="20">
    <path d="M14.7 2.66c-1.9-1.38-3.25-1.35-3.76-1.27-.15.02-.27.1-.35.22L5.96 8 3.7 11.1c-.27.38-.43.83-.46 1.3l-.3 5.63c-.02.4.4.7.77.55l5.26-2c.44-.18.83-.48 1.1-.86l1.85-2.55 5.05-6.95c.1-.13.12-.28.1-.43-.1-.52-.5-1.8-2.36-3.16zm-5.72 12.8l-2.05.8c-.08.02-.16 0-.22-.07-.25-.34-.56-.67-1.06-1.04-.5-.36-.9-.56-1.3-.7-.1-.03-.14-.1-.14-.2l.12-2.18.55-.76s1.23-.17 2.84 1c1.6 1.17 1.83 2.4 1.83 2.4l-.55.74z"/>
</svg>
