<svg class="svg-icon svg-icon-image" xmlns="http://www.w3.org/2000/svg" viewBox="-.89 -22.18 141.73 141.73">
   <path d="M32.9 24.47c0-5.62-4.53-10.18-10.12-10.18-5.6 0-10.13 4.55-10.13 10.17s4.54 10.18 10.13 10.18c5.6 0 10.13-4.56 10.13-10.18M9.73 87.97l-.24.35h121c-.02 0-.03-.02-.03-.03l-41.3-56.23s-4.9-6.66-9.8 0l-25.54 34.8-9.4-12.82s-4.9-6.66-9.78 0L9.72 87.97zm124.85 4H5.37V5.4h129.2v86.56zm5.38 2.7V2.7c0-1.5-1.2-2.7-2.7-2.7H2.7C1.2 0 0 1.2 0 2.7v91.96c0 1.5 1.2 2.7 2.7 2.7h134.56c1.5 0 2.7-1.2 2.7-2.7"/>
</svg>
